<svg width="46" height="52" viewBox="0 0 46 52" fill="none" xmlns="http://www.w3.org/2000/svg">
<path d="M18.0448 15.9676C17.1614 15.9742 16.2971 16.1315 15.4836 16.4476C12.8805 17.4593 11.0586 20.1939 11.0586 23.8139C11.0586 24.245 11.0869 24.6595 11.1348 25.0614L15.7936 28.3051C14.7473 27.153 14.1536 25.8373 14.1536 23.8139C14.1536 21.1342 15.202 19.8783 16.6061 19.3326C18.5613 18.7603 20.4413 19.373 21.9648 20.5026L22.8898 21.1989L23.8186 20.5064C25.7849 19.0465 27.8339 18.7907 29.2473 19.3376C30.6608 19.8845 31.7048 21.1342 31.7048 23.8139C31.7048 25.9567 31.0356 27.305 29.8686 28.5064L34.7198 25.1389C34.774 24.7134 34.8036 24.2724 34.8036 23.8139C34.8036 20.1939 32.9773 17.458 30.3661 16.4476C28.0415 15.5481 25.3417 16.1191 22.8973 17.6051C21.8399 16.9556 20.764 16.3298 19.6498 16.1164C19.1126 16.0134 18.5749 15.9637 18.0448 15.9676Z" fill="#E64C66"/>
<path d="M4.20504 18.7976C2.26067 18.7976 0.696289 20.4179 0.696289 22.3764V48.0614C0.696289 50.0057 2.2607 51.5689 4.20504 51.5689H41.725C43.6835 51.5689 45.3038 50.0057 45.3038 48.0614V22.3764C45.3038 20.4179 43.6835 18.7976 41.725 18.7976H33.325C33.9376 19.6666 34.387 20.7101 34.62 21.8926H39.3975L34.72 25.1389L32.9575 26.3626L29.87 28.5051L29.8688 28.5064L22.965 33.2976L15.7938 28.3051L11.135 25.0614L6.58254 21.8926H11.2413C11.4739 20.7097 11.9226 19.6667 12.5338 18.7976H4.20504ZM42.205 23.7151V46.7464L28.3425 37.9826C26.5967 36.8801 24.943 39.4989 26.6888 40.6014L39.1375 48.4751H6.76379L18.7475 40.5851C20.5394 39.4636 18.7815 36.7951 17.0438 37.9989L3.79504 46.7264V23.7226L22.0788 36.4551C22.6101 36.8244 23.315 36.8244 23.8463 36.4551L42.205 23.7151Z" fill="#1D949C"/>
<path d="M23.7716 0.474808C22.0644 0.217122 20.2493 1.1017 19.0826 3.08504L19.0786 3.09293L19.0746 3.09686C17.9456 5.08234 18.1239 7.00596 18.7636 8.69922C19.4032 10.3925 20.439 11.9471 21.1376 13.5772L21.362 14.1047L21.9329 14.0378C23.697 13.8381 25.569 13.9673 27.3659 13.6756C29.1629 13.384 30.9315 12.5684 32.0982 10.5851V10.5811L32.1022 10.5772C33.2324 8.58981 33.0933 6.57174 32.0197 5.2189C31.0418 3.98681 29.3591 3.43039 27.5078 3.52993C26.6542 1.88721 25.329 0.709887 23.7716 0.474808ZM23.5433 1.99843C24.6184 2.16071 25.7352 3.03152 26.3858 4.54961L26.6181 5.08504L27.1968 5.01024C28.8348 4.79391 30.1387 5.3236 30.8149 6.1756C31.4905 7.02686 31.6609 8.23303 30.7638 9.81339C30.763 9.81476 30.7645 9.81595 30.7638 9.81732C29.8319 11.3925 28.6626 11.9059 27.122 12.1559C25.7344 12.3811 24.0381 12.3323 22.3071 12.4748C21.5748 10.904 20.6942 9.46213 20.2008 8.15591C19.6516 6.70216 19.5142 5.44461 20.4094 3.86457L20.4135 3.86064C20.4142 3.85934 20.4127 3.858 20.4135 3.85671C21.3456 2.27772 22.4702 1.83646 23.5433 1.99843Z" fill="#E64C66"/>
</svg>
