<svg width="200" height="200" viewBox="0 0 200 200" fill="none" xmlns="http://www.w3.org/2000/svg">
<g clip-path="url(#clip0_139_4)">
<path d="M199.444 0.14014C196.111 0.8008 186.604 3.86386 175.842 7.72773C169.461 10.01 163.682 12.7527 158.238 16.1161C149.777 21.3012 143.556 26.7467 138.333 33.5535C135.619 37.097 133.762 40.1601 131.985 44.044C131.063 46.0661 130.985 46.1661 129.539 47.0871C126.413 49.0691 114.206 57.8578 114.572 57.8578C114.984 57.8578 126.777 49.7497 129.032 47.9078C129.619 47.4274 130.143 47.047 130.158 47.0871C130.191 47.1271 129.539 48.1882 128.714 49.4494C123.191 57.8778 120.873 62.2422 118.81 67.9679C116.492 74.4745 114.937 81.5816 112.444 97.2373C111.286 104.625 110.699 107.207 109.444 110.45C105.778 119.96 98.1429 127.768 89.0001 131.331C87.0001 132.112 88.1429 131.932 91.0159 131.011C94.4128 129.91 97.3969 128.268 100.206 125.946C101.032 125.265 101.635 124.825 101.572 124.965C101.492 125.105 100.651 126.487 99.6826 128.028C97.1905 131.972 95.2858 135.235 94.1588 137.497C92.2064 141.401 90.6033 146.406 89.4921 151.911L89.0477 154.194L88.0953 154.734C86.0635 155.896 79.2382 160.68 71.8414 166.107C66.4128 170.09 63.5873 172.012 60.4604 173.854C42.0953 184.625 25.3652 186.107 14.3334 177.917C8.95244 173.934 4.98419 167.848 2.41276 159.659C1.508 156.757 1.30165 155.075 1.39689 151.071C1.47625 147.067 1.71434 145.806 2.93657 142.623C5.52387 135.876 10.7778 131.051 17.3334 129.389C19.2858 128.889 23.6191 128.889 25.4763 129.389C29.7461 130.511 33.1429 132.793 35.8096 136.276C37.3652 138.318 37.889 139.219 38.7778 141.441C39.7144 143.804 40.2382 146.406 40.4445 149.65C40.4921 150.27 40.508 150.191 40.5239 149.329C40.5397 148.709 40.4445 147.447 40.3176 146.527C39.0159 137.157 32.7461 129.63 24.5239 127.588C22.4604 127.067 18.4286 127.127 16.27 127.708C11.9207 128.869 8.17466 131.472 5.22228 135.355C3.65086 137.437 2.80958 138.979 1.80958 141.622C0.507998 145.085 -0.0475568 148.769 0.14292 152.833C0.285777 155.815 0.603236 157.638 1.46038 160.36C5.93657 174.614 13.8572 182.683 25.7144 185.125C28.2223 185.626 35.0159 185.626 38.0159 185.125C48.5239 183.323 59.2382 178.239 70.5557 169.65C78.3016 163.784 88.27 155.755 88.5715 155.155C88.889 154.515 88.889 155.236 88.5397 157.297C88.3334 158.599 87.8096 162.222 87.381 165.365C86.3969 172.572 86.0319 174.134 84.6509 177.377C83.7144 179.599 82.7302 181.242 81.0319 183.464C78.2064 187.147 74.8096 189.929 70.9525 191.712C69.1588 192.533 69.3652 192.572 71.5557 191.791C75.8254 190.29 78.7938 188.048 81.7938 184.084L83.381 182.002L83.4763 182.743C83.5239 183.143 83.5715 184.625 83.5715 186.006C83.5715 188.029 83.6191 188.569 83.7938 188.649C83.9207 188.709 84.1111 189.129 84.2064 189.55C84.3016 190.05 84.4763 190.39 84.6667 190.45C84.8414 190.511 85.0953 190.871 85.2223 191.272C85.4128 191.832 85.5557 191.993 85.8572 191.993C86.1111 191.993 86.3652 192.173 86.5239 192.493C86.7144 192.853 86.873 192.953 87.1271 192.872C87.3652 192.812 87.5873 192.932 87.8572 193.273C88.0635 193.574 88.3492 193.794 88.508 193.794C88.6667 193.794 89.0001 194.014 89.254 194.294C89.5239 194.575 89.873 194.794 90.0635 194.794C90.2382 194.794 90.508 195.015 90.6509 195.275C90.7778 195.556 91.0477 195.796 91.2382 195.836C91.4445 195.875 91.6033 196.096 91.6667 196.396C91.7302 196.737 91.9048 196.917 92.254 197.017C92.5239 197.077 92.9683 197.338 93.254 197.598C93.8096 198.098 94.1111 197.938 94.0159 197.197C93.9683 196.757 93.7778 196.536 93.2223 196.317C92.9525 196.216 92.9524 196.176 93.2064 195.476C93.4763 194.794 93.4763 194.734 93.2064 194.494C92.8572 194.174 92.8572 193.874 93.2699 193.173C93.5239 192.713 93.5557 192.512 93.4128 192.293C93.27 192.092 93.3016 191.872 93.508 191.371C93.7461 190.751 93.7461 190.71 93.4921 190.47C93.27 190.27 93.2382 190.05 93.3334 189.389C93.4286 188.668 93.3969 188.509 93.1111 188.269C92.8414 188.029 92.7778 187.748 92.7778 186.907C92.7778 185.146 92.3969 183.923 91.5397 182.984C90.0635 181.341 87.0635 179.659 85.4445 179.56C85.0159 179.52 84.6826 179.479 84.6826 179.44C84.6826 179.38 84.9683 178.599 85.3176 177.677C86.5715 174.374 87.2858 171.011 87.7778 166.167C89.0477 153.574 92.5239 142.082 98.4604 130.831C100.318 127.307 102.429 123.904 103.429 122.823C103.937 122.262 104.873 121.081 105.508 120.16L106.667 118.499L106.794 119.359C106.873 119.84 106.889 121.862 106.841 123.864C106.762 126.947 106.794 127.528 106.984 127.528C107.27 127.528 107.381 127.768 107.619 128.909C107.746 129.61 107.873 129.83 108.111 129.83C108.365 129.83 108.825 130.691 109.175 131.832C109.206 131.932 109.413 132.012 109.651 131.972C109.968 131.952 110.175 132.112 110.492 132.653C110.857 133.233 111 133.353 111.349 133.253C111.699 133.173 111.889 133.313 112.397 133.954C112.73 134.374 113.143 134.735 113.333 134.735C113.508 134.755 113.905 135.015 114.206 135.335C114.508 135.676 114.937 135.936 115.159 135.936C115.429 135.936 115.699 136.156 115.984 136.617C116.222 136.997 116.587 137.337 116.778 137.377C117.032 137.417 117.191 137.658 117.318 138.138C117.444 138.579 117.619 138.859 117.873 138.959C118.381 139.119 119.27 139.7 119.746 140.18C120.254 140.661 120.429 140.42 120.366 139.319C120.318 138.519 120.27 138.458 119.762 138.278C119.461 138.178 119.191 138.078 119.158 138.038C119.127 138.018 119.27 137.558 119.476 137.037L119.842 136.096L119.492 135.796C119 135.375 119.032 134.955 119.619 133.934C120.08 133.133 120.095 133.053 119.857 132.813C119.604 132.593 119.604 132.512 119.905 131.752C120.333 130.731 120.318 130.41 119.905 130.27C119.604 130.17 119.572 130.07 119.667 129.49C119.968 127.728 119.968 127.628 119.572 127.428C119.238 127.247 119.206 127.067 119.111 125.325C118.984 122.683 118.762 121.862 117.905 120.681C116.079 118.218 111.254 115.315 109 115.315C108.714 115.315 108.492 115.255 108.524 115.155C108.556 115.075 109.064 113.794 109.651 112.312C111.333 108.088 112.286 104.024 113.032 98.018C114.889 82.7628 119.127 68.8688 125.905 55.6556C127.254 53.053 130.413 47.4074 130.492 47.5075C130.524 47.5275 130.301 48.3484 130 49.3093C128.604 53.7337 127.985 57.6976 127.968 62.5625C127.937 66.1862 128.111 68.2081 128.746 71.6717C129.73 76.997 131.857 83.103 133.968 86.6466C134.842 88.1281 137.366 91.1511 138.714 92.3724C141.587 94.955 145.063 96.5365 148.889 96.997C149.968 97.1371 150 97.1572 150.27 97.8578C150.714 99.059 152.619 102.963 153.699 104.885C155.223 107.588 157.158 110.431 158.318 111.652C160.556 113.994 163.92 115.536 168.968 116.517C170.952 116.917 174.366 117.057 174.366 116.757C174.366 116.677 173.777 116.296 173.063 115.936C171.889 115.335 171.604 115.075 170.318 113.434C169.429 112.292 167.92 109.93 166.366 107.207C163.444 102.142 161.857 100 159.985 98.6186C158.746 97.6978 156.604 96.6967 155.873 96.6967C155.667 96.6967 155.444 96.6167 155.396 96.4966C155.349 96.3765 155.444 96.2963 155.619 96.2963C155.794 96.2963 156.699 95.976 157.635 95.5957C164.381 92.8128 169.889 85.946 172.111 77.5376C172.905 74.5745 173.158 72.5526 173.158 69.1691C173.143 65.6856 172.73 62.9629 171.747 59.8999C171.048 57.7177 171.08 57.097 171.889 57.2171C172.27 57.2772 172.508 57.1772 172.714 56.8969C172.889 56.6766 173.333 56.2963 173.73 56.056C174.127 55.7958 174.682 55.3353 174.968 55.035C175.476 54.4745 175.508 54.4745 175.968 54.7547C176.413 55.055 176.444 55.035 176.825 54.5745C177.048 54.2943 177.223 53.9539 177.223 53.8138C177.223 53.6736 177.539 53.2933 177.937 52.993C178.333 52.6727 178.682 52.3323 178.73 52.2322C178.777 52.1521 178.539 51.8919 178.175 51.6517C177.461 51.1912 177.429 51.1311 177.81 50.6105C178.016 50.3102 178.032 50.1502 177.889 49.7497C177.714 49.2892 177.635 49.2493 177.063 49.3694C176.508 49.4895 176.366 49.4295 175.873 48.8688C175.286 48.2283 174.73 48.068 174.397 48.4885C174.08 48.8889 174.032 48.5485 174.301 47.8679L174.556 47.2272L173.777 46.106C173.366 45.4855 172.635 44.7247 172.175 44.3844C170.095 42.9029 166.762 44.1442 163.413 47.6476C163.016 48.0481 162.604 48.3484 162.492 48.3083C162.381 48.2482 162.333 48.3283 162.381 48.4885C162.429 48.6487 162.333 48.9289 162.175 49.109C161.889 49.4494 161.889 49.5095 162.366 51.3113C163.032 53.7937 163.73 55.1952 165.175 56.937C167.143 59.3192 168.777 60.0801 170.254 59.2793C170.699 59.0189 171.08 58.8589 171.111 58.8988C171.27 59.1391 172 62.062 172.238 63.4634C172.651 65.9259 172.619 69.9299 172.158 72.6727C170.81 80.7207 166.429 87.8078 160.366 91.7918C153.571 96.2362 145.905 96.1161 140 91.4715C138.429 90.2502 135.794 87.2072 134.667 85.3253C132.73 82.082 130.604 75.3553 129.825 69.9499C129.461 67.4874 129.413 61.1412 129.73 58.8589C130.667 52.2122 132.604 46.7667 136.175 40.7407C137.873 37.8778 142.238 32.3123 144.699 29.8499C150.889 23.7238 157.682 18.8589 165.968 14.6547C169.746 12.7327 172.508 11.5515 179.286 8.98899C192.032 4.12413 199.92 0.760761 199.92 0.18018C199.92 0.0800796 199.905 0.0200195 199.889 0.0200195C199.857 0.0400397 199.667 0.1001 199.444 0.14014ZM109.921 118.458C111.984 121.121 113.667 124.344 115.746 129.71C117.46 134.134 117.905 135.676 116.429 132.092C115.222 129.169 113.111 124.645 111.587 121.702C110.302 119.219 109.365 117.818 108.413 116.957C108.159 116.717 108.032 116.517 108.159 116.517C108.286 116.517 109.079 117.397 109.921 118.458ZM86.1271 182.182C87.5397 184.024 88.889 186.566 90.4128 190.27C91.7461 193.514 92.0477 194.575 90.8572 191.832C90.0635 189.99 87.7778 185.386 86.7938 183.644C86.4128 182.962 85.6826 181.941 85.1905 181.362C84.6985 180.781 84.4604 180.44 84.6826 180.581C84.9048 180.721 85.5557 181.441 86.1271 182.182Z" fill="#26ABB4"/>
<path d="M156.206 28.3485C156.158 28.5287 156.111 28.9491 156.111 29.3095C156.111 29.9101 156.08 29.9501 155.667 29.87C155.381 29.83 155.143 29.9101 155 30.1303C154.81 30.4105 154.842 30.5907 155.158 31.3315C155.508 32.1523 155.524 32.2724 155.333 32.9731C155.127 33.6938 155.127 33.7339 155.619 34.2544C156.175 34.835 156.063 35.0351 155.158 35.0351C154.714 35.0351 154.667 35.1153 154.286 36.6769C153.556 39.5396 153.985 41.3815 155.905 43.6438C157.254 45.2453 160.08 47.2474 161.699 47.7479C161.952 47.8279 162.095 47.9881 162.048 48.0883C161.777 48.6488 162.667 47.7279 163.667 46.4066C164.985 44.6848 165.476 43.7039 166 41.6417C166.524 39.6598 166.667 37.9581 166.429 36.4967C166.27 35.4956 166.127 35.2153 165.429 34.3946C164.857 33.7138 164.571 33.4937 164.381 33.6138C164.238 33.7138 163.937 33.8339 163.714 33.9141C163.349 34.0141 163.27 33.9541 163.191 33.5137C163.111 33.1733 162.889 32.9131 162.508 32.6928C162.19 32.5327 161.699 32.1923 161.444 31.9321C161.175 31.6919 160.651 31.2914 160.27 31.0512C159.762 30.7309 159.571 30.4706 159.492 30.0102C159.396 29.3294 159.048 29.0291 158.365 29.0291C158.111 29.0291 157.556 28.809 157.127 28.5287C156.206 27.9281 156.318 27.9682 156.206 28.3485Z" fill="#26ABB4"/>
<path d="M82.9523 43.6435C82.857 44.2041 82.6666 44.8848 82.5237 45.145C82.3014 45.5654 82.3014 45.7456 82.4603 46.2662C82.6189 46.7267 82.6189 46.9268 82.4761 47.107C82.3808 47.2271 82.3014 47.7076 82.3014 48.1681C82.3014 48.6686 82.2062 49.1089 82.0634 49.2492C81.9364 49.3893 81.8253 49.7897 81.8253 50.1501C81.8253 50.5104 81.7142 50.9107 81.5872 51.051C81.4443 51.211 81.3491 51.6315 81.3491 52.172C81.3491 52.8528 81.2698 53.093 81.0157 53.2531C80.746 53.4534 80.7142 53.6135 80.7936 54.2541C80.8729 54.8547 80.8412 55.0549 80.6189 55.2151C80.4126 55.3552 80.3808 55.5354 80.4761 55.9759C80.5395 56.2962 80.6031 56.9568 80.6189 57.4573C80.6189 57.9579 80.73 58.5785 80.8412 58.8187C80.9681 59.0789 81.0157 59.4993 80.9681 59.7396C80.8888 60.1201 81.0951 60.4403 82.0951 61.5615C82.746 62.3222 83.8253 63.7837 84.4761 64.8047C85.7936 66.9068 86.1586 67.1471 87.0317 66.5465C88.6348 65.4654 90.7142 59.7597 90.7142 56.4764C90.7142 55.1951 90.2538 53.9939 89.1586 52.4324C88.6983 51.7717 88.5555 51.4513 88.6666 51.2312C88.8888 50.7906 88.857 50.7507 88.1745 50.1701C87.7142 49.7897 87.5555 49.5294 87.5872 49.2091C87.6031 48.8888 87.4761 48.6885 87.0793 48.4283C86.7776 48.2481 86.4761 47.9077 86.4126 47.6675C86.3332 47.4073 86.1428 47.2471 85.9205 47.2471C85.2538 47.2471 84.7618 46.7867 84.8094 46.2261C84.857 45.7857 84.7618 45.6655 84.2062 45.3852C83.5555 45.0649 83.5555 45.0649 83.8094 44.5645C84.1269 43.9639 84.0157 43.4633 83.5079 43.0029L83.1269 42.6426L82.9523 43.6435ZM85.8729 54.7747C86.6189 58.158 86.9523 61.101 86.8729 63.4834C86.8412 64.6246 86.73 65.5654 86.6348 65.6855C86.4761 65.8858 86.4761 65.7456 86.6189 65.145C86.7142 64.7046 86.746 63.6836 86.6984 62.7627C86.6031 60.9609 85.5395 54.5544 84.8253 51.4113C84.5713 50.2702 84.365 49.2692 84.3808 49.149C84.3967 48.8086 85.3174 52.2522 85.8729 54.7747Z" fill="#26ABB4"/>
<path d="M152.048 45.3655C151.619 45.5656 151.158 46.0062 150.746 46.6268C150.175 47.4676 150.127 47.6478 150.301 47.968C150.73 48.7689 150.699 49.1894 150.175 49.5096C149.777 49.7499 149.524 50.2304 148.889 51.932C148.191 53.7939 148.048 54.0341 147.699 54.0542C147.127 54.0542 146.905 54.4146 146.905 55.2754C146.905 55.6958 146.762 56.4365 146.587 56.9571C146.413 57.4777 146.301 57.9781 146.366 58.0783C146.413 58.1783 146.73 58.2584 147.063 58.2584C147.635 58.2584 147.682 58.2984 147.73 58.879C147.794 59.7999 148.175 60.0201 148.777 59.4996C149.286 59.0191 150.063 58.9191 150.349 59.2795C150.571 59.5596 151.111 59.2194 151.349 58.6587C151.571 58.1583 151.873 58.1383 151.746 58.6388C151.539 59.4596 151.889 59.9 153.111 60.4005C155.413 61.3014 156.571 60.921 158.333 58.6789C159.206 57.5577 159.714 56.6768 160.254 55.3554C160.968 53.6137 161.825 50.7909 161.825 50.1903C161.825 49.7098 159.381 47.1673 158.238 46.4665C156.127 45.1653 153.524 44.7048 152.048 45.3655Z" fill="#26ABB4"/>
<path d="M75.9999 61.5617C75.619 61.7018 74.9681 62.1023 74.5396 62.4626C73.9047 62.9631 73.6824 63.0433 73.4443 62.8831C73.2062 62.7228 73.0634 62.7829 72.6984 63.2634C72.3809 63.6838 72.1428 63.824 71.9205 63.7439C71.6666 63.6638 71.5079 63.8039 71.3015 64.2644C71.1428 64.6048 70.9047 64.8451 70.7618 64.825C70.6032 64.785 70.4443 64.9852 70.3491 65.3655C70.127 66.2664 69.9365 66.4867 69.5079 66.3466C69.2062 66.2464 69.0793 66.3466 68.8571 66.847C68.5396 67.5277 68.3651 67.6278 68.238 67.1673C68.111 66.7469 67.4761 66.787 67.1586 67.2475C66.9047 67.6078 66.9205 67.6278 67.5237 67.9481C67.8889 68.1083 68.3174 68.4487 68.492 68.6688C68.746 68.9892 68.8729 69.0292 69.238 68.849C69.5714 68.6889 69.6824 68.7089 69.7936 68.9691C69.8889 69.1493 70.1586 69.2694 70.4761 69.2694C70.8571 69.2694 71.0793 69.3895 71.1904 69.6698C71.2856 69.8901 71.492 70.0703 71.6508 70.0703C71.8095 70.0703 72.111 70.2304 72.3174 70.4506C72.5237 70.6508 72.9523 70.871 73.2698 70.9511C73.6666 71.0313 73.8729 71.2114 73.9365 71.4716C73.9999 71.752 74.1586 71.8721 74.492 71.8721C74.746 71.8721 75.0793 72.0322 75.2222 72.2524C75.4285 72.5328 75.6348 72.5928 76.1746 72.5328C76.5872 72.4727 76.9047 72.5126 76.9682 72.6529C77.0476 72.8129 77.1746 72.8129 77.4127 72.6529C77.5872 72.5328 77.9523 72.4727 78.2222 72.5328C78.6348 72.5928 78.9205 72.4126 79.9999 71.3715C80.6984 70.7108 81.8253 69.8099 82.492 69.3895C83.9205 68.4686 84.1746 68.0283 83.7936 66.9071C83.111 64.805 79.5872 61.9021 77.1428 61.4015C76.8889 61.3415 76.3651 61.4215 75.9999 61.5617ZM82.127 66.7469C82.6032 66.9071 83.0476 67.1274 83.1428 67.2475C83.2222 67.3475 82.9841 67.3075 82.6032 67.1274C82.2222 66.9671 81.3015 66.787 80.5555 66.7269C79.3809 66.6268 74.0952 66.9071 71.9841 67.1673C70.9047 67.2874 73.619 66.6868 75.0793 66.4867C76.8412 66.2264 81.0634 66.3865 82.127 66.7469Z" fill="#26ABB4"/>
<path d="M96.5715 66.7465C96.4921 66.8467 87.3492 68.2682 86.8413 68.2682C86.6667 68.2682 86.5715 68.3282 86.635 68.3883C86.8254 68.6285 93.3334 67.8276 95.3175 67.3471C97.3176 66.8467 97.762 66.6665 97.0319 66.6665C96.8254 66.6665 96.6033 66.7066 96.5715 66.7465Z" fill="#26ABB4"/>
<path d="M83.635 70.13C82.3492 71.5513 81.5715 72.2521 80.2064 73.2531C79.1271 74.0339 78.9207 74.2742 78.9048 74.7145C78.889 75.0148 78.7144 75.4753 78.5081 75.7555C78.254 76.0959 78.1747 76.3763 78.254 76.6564C78.3176 76.9368 78.2382 77.2772 78.0319 77.6575C77.6509 78.3181 77.6191 78.6985 77.8731 79.0189C78.0001 79.179 78.0001 79.4393 77.8572 79.9998C77.6826 80.6605 77.6985 80.7806 77.9207 81.0009C78.1429 81.201 78.1747 81.4213 78.0795 82.242C78.0159 82.9027 78.0477 83.2832 78.1588 83.3632C78.27 83.4633 78.3016 83.7636 78.2382 84.224C78.1747 84.6444 78.2064 85.1049 78.3334 85.3853C78.4763 85.7456 78.4921 86.0058 78.3652 86.4863C78.2223 86.9468 78.2382 87.207 78.381 87.5073C78.5397 87.8276 78.5081 87.9477 78.2382 88.3081C77.9366 88.6886 77.9207 88.7886 78.1111 89.4492C78.2223 89.8497 78.3176 90.5704 78.3334 91.0309C78.3334 91.9919 78.3176 91.9718 78.8731 91.6515C79.3652 91.3712 79.5239 90.8507 79.2858 90.2901C79.0635 89.7696 79.0477 89.8096 79.8414 89.5693C80.3176 89.4293 80.4921 89.269 80.5557 88.8887C80.635 88.4483 80.7462 88.3883 81.4604 88.3282C82.1112 88.2881 82.2858 88.188 82.3492 87.8877C82.3969 87.6275 82.5715 87.4874 82.8254 87.4874C83.4604 87.4874 83.7302 87.2871 83.7302 86.7866C83.7302 86.4263 83.8731 86.266 84.4128 86.0258C84.9842 85.7856 85.0795 85.6654 85.0319 85.225C85.0001 84.8246 85.1271 84.5844 85.6667 84.124C86.7461 83.163 87.6509 81.8617 87.8414 80.9808C88.3016 78.8387 87.8414 74.254 86.889 71.6515C85.9366 69.0689 84.9842 68.6285 83.635 70.13ZM85.3176 72.4522C85.0795 74.3741 84.381 77.0369 83.5557 79.2591C82.9207 80.9808 80.4128 86.6865 80.3016 86.6865C80.27 86.6865 80.7938 85.2651 81.4921 83.5234C83.9048 77.4172 85.27 72.9327 85.3334 70.8707C85.3334 70.5904 85.381 70.4904 85.4286 70.6504C85.4763 70.7907 85.4286 71.6114 85.3176 72.4522Z" fill="#26ABB4"/>
<path d="M61.7936 72.5122C61.0317 73.7134 60.6348 74.5944 60.3174 75.8556C59.9523 77.257 60.0475 80.1199 60.5237 81.6814C60.6983 82.282 61.2538 84.1238 61.7776 85.7855C62.6665 88.6884 62.6983 88.8486 62.6824 90.6504C62.6824 92.4923 62.6824 92.5122 62.9681 92.0517C63.3808 91.3711 64.5871 88.2079 65.0475 86.5863C65.2698 85.8055 65.5395 84.4841 65.6507 83.6433C65.8252 82.282 65.8252 81.9016 65.5713 80.4401C65.0951 77.5974 63.0475 71.6714 62.5555 71.6714C62.4443 71.6714 62.0951 72.0517 61.7936 72.5122Z" fill="#26ABB4"/>
<path d="M47.8571 76.4365C49.0952 77.6377 49.5555 78.6387 51.2062 83.4635C52.5237 87.3674 53.5079 88.9491 55.3174 90.0902C56.6666 90.9511 59.1269 91.4515 59.1269 90.871C59.1269 90.2704 57.9047 86.1462 57.1586 84.1842C55.8729 80.861 54.9523 79.7198 52.1428 77.9581C50.6984 77.0572 48.111 75.876 47.6031 75.876C47.365 75.8959 47.4285 76.0161 47.8571 76.4365Z" fill="#26ABB4"/>
<path d="M109.762 84.9047C102.952 90.4504 97.4286 94.8347 95.9524 95.8356C93.2063 97.7176 89.2539 99.2992 85.7937 99.9197C83.6508 100.3 78.8571 100.26 76.508 99.8397C71.2539 98.8787 65.0952 96.1561 61.381 93.1531C59.6825 91.7916 60.7777 92.9328 62.7461 94.5744C66.9682 98.1179 71.0952 100.26 75.7937 101.341C78.2539 101.922 83.1905 101.962 85.5556 101.421C90.2381 100.36 94.8095 98.1179 98.9048 94.8547C100.603 93.5134 115 80.9008 115 80.7606C115 80.6205 115.127 80.5404 109.762 84.9047Z" fill="#26ABB4"/>
<path d="M54.5237 94.4146C54.3014 94.4545 53.6983 94.5948 53.1745 94.7149C51.4126 95.1152 49.7776 96.4566 47.5713 99.3395C46.5237 100.681 45.4285 102.503 45.5395 102.663C45.5872 102.703 45.8253 102.563 46.0951 102.322C47.111 101.402 47.7618 101.261 51.746 101.101C56.0157 100.921 56.5713 100.781 58.111 99.5397C59.238 98.6188 59.9205 97.6377 60.5713 95.9961L61.0475 94.7949L60.5237 94.6347C59.9047 94.4746 55.0951 94.2743 54.5237 94.4146Z" fill="#26ABB4"/>
<path d="M71.8887 124.404C71.2857 124.785 70.3809 125.565 69.8729 126.146C68.984 127.147 68.8411 127.207 68.1428 126.827C67.9364 126.727 67.7301 126.947 67.2857 127.728C66.7459 128.689 66.6507 128.749 66.1904 128.649C65.7142 128.528 65.6666 128.568 65.3015 129.569C64.9999 130.43 64.8411 130.631 64.5396 130.631C64.1904 130.631 64.111 130.771 63.9047 131.932L63.6507 133.233H62.984C62.2062 133.253 62.2697 133.173 61.8571 134.374C61.492 135.435 61.3649 135.515 60.9523 134.935C60.5396 134.354 59.9682 134.434 59.4285 135.155C58.9205 135.836 58.8571 136.136 59.1745 136.136C59.6666 136.136 61.0316 136.777 61.603 137.257C62.1904 137.778 62.238 137.778 62.6666 137.457C63.2221 137.057 63.4761 137.057 63.7301 137.437C63.8571 137.637 64.2221 137.738 64.8095 137.738C65.5396 137.738 65.7459 137.818 66.0476 138.238C66.3333 138.619 66.5714 138.739 67.111 138.739C67.6506 138.739 67.8729 138.839 68.1428 139.239C68.4443 139.66 68.619 139.74 69.4443 139.74C70.3173 139.74 70.3967 139.78 70.492 140.24C70.5872 140.701 70.6666 140.741 71.5237 140.741C72.2856 140.741 72.4761 140.801 72.619 141.141C72.8253 141.622 73.2539 141.642 74.238 141.201C74.9523 140.881 74.9999 140.881 75.2857 141.221C75.5872 141.541 75.6348 141.541 76.492 141.001C77.2539 140.54 77.4443 140.48 77.7142 140.701C77.9999 140.941 78.2062 140.741 80.0476 138.498C81.1586 137.137 82.7301 135.455 83.5396 134.775C84.3491 134.074 85.1268 133.273 85.2697 133.013C86.1745 131.271 84.5396 128.729 81.0476 126.466C78.2856 124.664 75.8253 123.724 73.9047 123.724C73.1745 123.724 72.7618 123.864 71.8887 124.404ZM83.9364 131.131C84.7301 131.431 84.5872 131.631 83.7935 131.351C82.6507 130.971 81.2539 130.891 79.6666 131.131C77.1268 131.491 70.8411 132.893 67.9523 133.734C66.4761 134.174 65.238 134.494 65.2062 134.454C65.1268 134.374 72.0158 132.012 73.492 131.631C76.1904 130.931 77.7618 130.751 80.5554 130.811C82.0952 130.851 83.603 130.991 83.9364 131.131Z" fill="#26ABB4"/>
<path d="M45.3174 135.115C44.2221 135.275 43.9205 135.496 43.1427 136.677C41.7142 138.879 41.0317 142.222 41.365 145.486L41.5395 147.347L42.8412 147.828C45.5237 148.849 48.0157 149.049 49.73 148.368C51.4126 147.708 52.0633 146.847 52.6348 144.485L52.9364 143.243L52.4602 142.683L51.9841 142.142H52.3808C53.0157 142.142 53.3808 141.802 53.4919 141.141C53.6031 140.46 53.746 140.32 54.4285 140.16C55.0951 139.98 55.1586 139.379 54.6031 138.819L54.1745 138.378L54.5395 137.758C54.9681 137.017 54.8729 136.857 53.8412 136.657C53.4919 136.577 53.0317 136.336 52.8094 136.136C52.3174 135.636 52.1745 135.636 51.73 136.156C51.4285 136.517 51.3014 136.537 50.7776 136.356C50.4285 136.236 49.857 136.136 49.4919 136.136C49.1269 136.136 48.6348 136.036 48.4126 135.936C48.0793 135.776 47.857 135.796 47.4919 136.036C47.0633 136.316 46.9999 136.296 46.8094 135.976C46.6983 135.796 46.5555 135.475 46.5079 135.275C46.4443 135.095 46.365 134.955 46.3014 134.955C46.238 134.975 45.7936 135.055 45.3174 135.115Z" fill="#26ABB4"/>
<path d="M30.5714 145.786C29.4444 146.186 28.6985 147.047 28.0952 148.669C27.508 150.21 27.508 150.311 28.0794 151.131L28.4127 151.611L27.9682 151.472C27.3968 151.311 27 151.592 26.7461 152.332C26.5873 152.812 26.4127 152.973 25.8889 153.093C25.1111 153.293 24.9206 153.915 25.492 154.415L25.8413 154.734L25.4127 155.356C25.1905 155.695 25 156.056 25 156.137C25 156.216 25.3492 156.416 25.7937 156.557C26.2223 156.697 26.7461 157.038 26.9365 157.297C27.3333 157.838 27.7937 157.898 28.1905 157.458C28.4286 157.158 28.5396 157.177 29.4286 157.557C29.9524 157.778 30.508 157.958 30.6508 157.958C30.8095 157.958 31.1587 158.059 31.4444 158.198C31.8413 158.378 32.0635 158.378 32.3492 158.218C32.6985 158.018 32.7619 158.059 33.0158 158.659C33.2699 159.239 33.3968 159.32 34.1587 159.44C35.2539 159.599 35.8254 159.279 36.873 157.878C38.3651 155.875 39.2857 152.733 39.2857 149.61V147.928L38.0794 147.207C35.6349 145.786 32.3015 145.145 30.5714 145.786Z" fill="#26ABB4"/>
<path d="M44.365 149.89C44.1427 149.93 43.4602 150.09 42.8412 150.27L41.6983 150.571L41.5395 151.412C40.9841 154.174 40.9523 157.478 41.4443 159.76C42.0157 162.323 42.9999 163.524 44.9681 164.084L46.1745 164.425L46.6348 163.743C47.0157 163.183 47.0951 163.143 47.0157 163.503C46.9047 164.084 47.2221 164.605 47.8729 164.865C48.238 165.026 48.5237 165.346 48.73 165.826C49.111 166.727 49.6824 166.847 49.9205 166.066C50.0951 165.466 50.0951 165.466 50.746 165.966C51.0317 166.186 51.3174 166.367 51.3967 166.367C51.4602 166.367 51.5079 165.886 51.5079 165.285C51.5079 164.685 51.5713 164.144 51.6507 164.084C51.73 164.024 51.8729 163.683 51.9681 163.364C52.111 162.823 52.0793 162.703 51.7618 162.343C51.4126 161.963 51.3967 161.843 51.4602 159.58C51.5237 157.518 51.4919 157.158 51.238 156.858C50.9841 156.517 50.9841 156.476 51.4602 155.976C51.9205 155.476 51.9364 155.395 51.8412 154.434C51.6983 153.074 51.365 152.473 50.1904 151.551C48.7776 150.41 45.9999 149.63 44.365 149.89Z" fill="#26ABB4"/>
<path d="M91.4763 151.412C90.9683 151.551 90.5239 151.731 90.4763 151.772C90.4287 151.832 90.7778 152.673 91.2224 153.614C93.3969 158.119 96.3176 162.323 98.0953 163.484C99.9843 164.725 102.921 165.626 106.191 165.966C108.095 166.167 109.444 166.006 108.73 165.665C106.492 164.584 105.841 163.844 102.794 158.879C99.9207 154.174 98.7144 152.834 96.4287 151.832C95.0159 151.212 92.8414 151.032 91.4763 151.412Z" fill="#26ABB4"/>
<path d="M40.0951 152.673C40.0951 152.894 40.1428 152.954 40.1904 152.793C40.238 152.653 40.2222 152.473 40.1745 152.413C40.1269 152.332 40.0793 152.452 40.0951 152.673Z" fill="#26ABB4"/>
<path d="M39.9365 153.473C39.9365 153.694 39.9841 153.754 40.0317 153.593C40.0793 153.453 40.0634 153.273 40.0158 153.213C39.9682 153.134 39.9205 153.254 39.9365 153.473Z" fill="#26ABB4"/>
<path d="M39.6985 154.475C39.635 154.755 39.6191 155.035 39.6509 155.095C39.6985 155.135 39.7778 154.936 39.8254 154.635C39.889 154.354 39.9048 154.074 39.8731 154.014C39.8254 153.975 39.7462 154.174 39.6985 154.475Z" fill="#26ABB4"/>
<path d="M58.0158 186.847C57.3333 187.167 56.1747 188.149 55.6508 188.869C55.3333 189.29 55.1587 189.369 54.7777 189.29C54.3333 189.17 54.2539 189.249 53.9842 189.89C53.7301 190.47 53.5873 190.59 53.2699 190.551C52.9206 190.491 52.8095 190.631 52.5397 191.332C52.3175 191.972 52.1587 192.173 51.9524 192.072C51.7461 191.993 51.6667 192.132 51.5873 192.733C51.381 194.194 51.3651 194.254 50.8413 194.114C50.4127 194.014 50.3492 194.054 50.127 194.794C49.8413 195.695 49.7619 195.736 49.2063 195.275C48.8254 194.975 48.7937 194.975 48.3016 195.596L47.7937 196.257L48.6349 196.536C49.0952 196.677 49.6825 196.957 49.9366 197.137C50.3175 197.417 50.4604 197.437 50.7143 197.237C51.0952 196.937 51.508 196.917 51.508 197.197C51.508 197.297 51.8572 197.398 52.2857 197.398C52.7937 197.398 53.0952 197.497 53.1429 197.677C53.1905 197.818 53.5556 198.018 53.9366 198.078C54.3333 198.158 54.7461 198.359 54.8572 198.518C55 198.739 55.2223 198.799 55.6349 198.719C56.2539 198.599 56.4762 198.719 56.6349 199.26C56.7143 199.539 56.8572 199.58 57.3492 199.479C57.7937 199.399 58 199.44 58.1587 199.68C58.4127 200.06 58.6825 200.08 59.3968 199.76C59.7937 199.58 60 199.58 60.2223 199.74C60.4604 199.92 60.6191 199.88 61.0318 199.58C61.3651 199.32 61.6985 199.219 61.9366 199.299C62.2699 199.399 62.508 199.179 63.5714 197.758C64.2381 196.836 65.4127 195.515 66.1747 194.815C67.5873 193.494 67.8254 193.053 67.6191 192.032C67.127 189.509 60.2539 185.785 58.0158 186.847ZM66.4762 191.952C66.7143 192.032 65.9524 192.092 64.8095 192.092C63 192.092 62.2857 192.212 59.7619 192.853C58.1429 193.273 56.0158 193.874 55.0158 194.215C54.0158 194.535 53.1747 194.775 53.1429 194.734C53.0318 194.575 58.127 192.733 59.9206 192.272C62.0952 191.731 65.2539 191.572 66.4762 191.952Z" fill="#26ABB4"/>
</g>
<defs>
<clipPath id="clip0_139_4">
<rect width="200" height="200" fill="white"/>
</clipPath>
</defs>
</svg>
